HIERARCHY
ROOT ui
{
	 OFFSET 0 0 0
	 CHANNELS 3 XPosition YPosition Z Position
	 EndSite
	 {
	 OFFSET 0 -1 0
	 }
}
ROOT li
{
	 OFFSET 0 0 0
	 CHANNELS 3 XPosition YPosition Z Position
	 EndSite
	 {
	 OFFSET 0 -1 0
	 }
}
ROOT ul
{
	 OFFSET 0 0 0
	 CHANNELS 3 XPosition YPosition Z Position
	 EndSite
	 {
	 OFFSET 0 -1 0
	 }
}
ROOT ll
{
	 OFFSET 0 0 0
	 CHANNELS 3 XPosition YPosition Z Position
	 EndSite
	 {
	 OFFSET 0 -1 0
	 }
}
ROOT tt
{
	 OFFSET 0 0 0
	 CHANNELS 3 XPosition YPosition Z Position
	 EndSite
	 {
	 OFFSET 0 -1 0
	 }
}
ROOT tb
{
	 OFFSET 0 0 0
	 CHANNELS 3 XPosition YPosition Z Position
	 EndSite
	 {
	 OFFSET 0 -1 0
	 }
}
ROOT td
{
	 OFFSET 0 0 0
	 CHANNELS 3 XPosition YPosition Z Position
	 EndSite
	 {
	 OFFSET 0 -1 0
	 }
}
ROOT v
{
	 OFFSET 0 0 0
	 CHANNELS 3 XPosition YPosition Z Position
	 EndSite
	 {
	 OFFSET 0 -1 0
	 }
}
ROOT bn
{
	 OFFSET 0 0 0
	 CHANNELS 3 XPosition YPosition Z Position
	 EndSite
	 {
	 OFFSET 0 -1 0
	 }
}
MOTION
Frames: 32
Frame Time: 0.002
-0.020688962936401368	-4.442090094089508E-4	0		0.7139368286132812	-2.841016357421875	0		-0.813822021484375	0.323728515625	0		-0.2115489044189453	-3.45392822265625	0		1.72630810546875	-0.6022433471679688	0		3.342609375	-0.7909945068359375	0		4.583294921875	-0.6249573364257812	0		5.9564150390625	0.4181563415527344	0		-0.139722412109375	5.9460732421875	0		
0.006271358966827393	-0.0010568360090255737	0		0.6947509155273438	-2.850923583984375	0		-0.8097979736328125	0.3274669189453125	0		-0.19093809509277343	-3.477446533203125	0		1.72788916015625	-0.6274697265625	0		3.363861572265625	-0.7725159301757812	0		4.58839599609375	-0.616232177734375	0		5.9656220703125	0.4338200988769531	0		-0.13877720642089844	5.9448583984375	0		
0.006251809120178223	-0.0012352570295333862	0		0.7206678466796875	-2.854503173828125	0		-0.8047551879882813	0.33121566772460936	0		-0.19097543334960937	-3.4776240234375	0		1.716393310546875	-0.6584849853515625	0		3.3617158203125	-0.7806799926757813	0		4.60344775390625	-0.6116641845703125	0		5.96148291015625	0.42567333984375	0		-0.13975091552734376	5.94569580078125	0		
0.013361384391784668	0.005499754905700684	0		0.6946922607421875	-2.851269287109375	0		-0.80068798828125	0.3350048828125	0		-0.19203659057617187	-3.479763427734375	0		1.7298065185546876	-0.6968685302734375	0		3.382846923828125	-0.7721923217773438	0		4.59730810546875	-0.6207730102539063	0		5.961490234375	0.4254583740234375	0		-0.021519880294799804	5.95573193359375	0		
0.006285143852233887	-0.001527534008026123	0		0.71655908203125	-2.85975	0		-0.82468115234375	0.33324847412109376	0		-0.18529905700683594	-3.49600146484375	0		1.738136474609375	-0.7421595458984375	0		3.379897705078125	-0.7703270263671875	0		4.612419921875	-0.6152003173828124	0		5.95640380859375	0.41732098388671873	0		-0.15473162841796875	5.9356376953125	0		
0.006344172954559326	-0.0016412800550460816	0		0.69742041015625	-2.86958251953125	0		-0.82461669921875	0.33314822387695314	0		-0.1775279083251953	-3.511233154296875	0		1.7464766845703126	-0.7884341430664062	0		3.380205078125	-0.7534976196289063	0		4.61351513671875	-0.6124046630859376	0		5.9564697265625	0.41711053466796877	0		-0.007071730136871338	5.96726708984375	0		
0.006432023048400879	-0.0017336130142211914	0		0.7223751220703125	-2.8750712890625	0		-0.8136775512695312	0.322903564453125	0		-0.18158177185058594	-3.516260009765625	0		1.77253271484375	-0.8549658813476563	0		3.40504541015625	-0.7690350952148437	0		4.62662060546875	-0.61078271484375	0		5.9565654296875	0.4169073791503906	0		-0.17231410217285156	5.93971337890625	0		
0.013653657913208007	0.005086997985839844	0		0.6814197387695312	-2.875526123046875	0		-0.8003729858398437	0.3346483154296875	0		-0.15478926086425782	-3.532740478515625	0		1.779090576171875	-0.8901769409179687	0		3.41155908203125	-0.74227197265625	0		4.63799853515625	-0.593120849609375	0		5.970794921875	0.4234967956542969	0		-0.0036805310249328612	5.96405859375	0		
0.01379146671295166	0.005037342071533203	0		0.732346923828125	-2.885375732421875	0		-0.8100723876953125	0.3447701416015625	0		-0.1577782745361328	-3.53573974609375	0		1.7864366455078124	-0.9403843383789062	0		3.414494384765625	-0.7544441528320313	0		4.64910595703125	-0.5944456787109375	0		5.94883740234375	0.4166506042480469	0		-0.13869847106933594	5.946091796875	0		
-0.020158203125	-0.001466156005859375	0		0.6905259399414062	-2.878775390625	0		-0.824093017578125	0.3329793701171875	0		-0.0989362564086914	-3.550673095703125	0		1.787687255859375	-0.9974820556640625	0		3.388725341796875	-0.7481583862304687	0		4.65333740234375	-0.5886539306640625	0		5.9570009765625	0.4163486022949219	0		-0.1535624237060547	5.93529931640625	0		
0.007001688003540039	-0.0018922849893569947	0		0.7233582153320313	-2.89531201171875	0		-0.823920654296875	0.3329928894042969	0		-0.16683226013183594	-3.547628662109375	0		1.774097900390625	-1.044334228515625	0		3.427785888671875	-0.7538637084960937	0		4.66652880859375	-0.5859932250976563	0		5.94505322265625	0.4083610229492188	0		-0.153235107421875	5.93529443359375	0		
-0.01982979202270508	-0.0014657059907913208	0		0.6783184814453125	-2.902627197265625	0		-0.823745361328125	0.3330260925292969	0		-0.08124794006347656	-3.578943603515625	0		1.774302490234375	-1.104386962890625	0		3.42820751953125	-0.735959716796875	0		4.682814453125	-0.577373046875	0		5.95421435546875	0.4070526123046875	0		-0.13772378540039062	5.94607373046875	0		
0.007329136848449707	-0.001858801007270813	0		0.7063705444335937	-2.9040576171875	0		-0.8235726318359375	0.33307733154296876	0		-0.14508189392089843	-3.57092333984375	0		1.7407821044921874	-1.145900146484375	0		3.40831787109375	-0.7377315063476563	0		4.6901435546875	-0.5656050415039062	0		5.94952978515625	0.4159672546386719	0		-0.13737460327148437	5.946103515625	0		
-0.015450580596923828	0.002539453029632568	0		0.7044022216796875	-2.906007568359375	0		-0.7874110107421874	0.3325850524902344	0		-0.08115729522705079	-3.578871826171875	0		1.70826708984375	-1.186411865234375	0		3.4145888671875	-0.7288936157226562	0		4.69949755859375	-0.5518553466796875	0		5.957697265625	0.4156939392089844	0		-0.019856698989868166	5.956328125	0		
0.007630374908447266	-0.0017614129781723022	0		0.737203369140625	-2.922485595703125	0		-0.7921915893554687	0.3367438659667969	0		-0.11916610717773438	-3.58122021484375	0		1.7067525634765626	-1.226388671875	0		3.4505673828125	-0.7385044555664062	0		4.71267138671875	-0.549149658203125	0		5.949857421875	0.4156875915527344	0		-0.004353557109832764	5.967150390625	0		
-0.019231077194213866	-0.0012687599658966063	0		0.7233294677734375	-2.91721875	0		-0.7660335693359375	0.3374331970214844	0		-0.05935016250610352	-3.59508056640625	0		1.7212864990234376	-1.26259912109375	0		3.414824951171875	-0.7289772338867188	0		4.73197509765625	-0.53752001953125	0		5.945880859375	0.4076411437988281	0		-0.1363795623779297	5.94628564453125	0		
0.007890068054199218	-0.0016050050258636474	0		0.7041986083984375	-2.927855712890625	0		-0.8338283081054687	0.3426044921875	0		-0.131478759765625	-3.603865478515625	0		1.6919864501953126	-1.287107421875	0		3.429754150390625	-0.7402251586914063	0		4.72038232421875	-0.5183878784179687	0		5.94600146484375	0.4065523986816406	0		-0.1360962677001953	5.945375	0		
0.008004509925842285	-0.0015055450201034546	0		0.7181505737304688	-2.93299462890625	0		-0.7868510131835937	0.3329921875	0		-0.05372611236572265	-3.620982666015625	0		1.7494620361328126	-1.3259595947265626	0		3.457299072265625	-0.7116487426757813	0		4.74276171875	-0.5007681274414062	0		5.94612744140625	0.40648458862304687	0		-0.13483010864257813	5.944462890625	0		
0.015218412399291992	0.0054974122047424315	0		0.7083353271484375	-2.922744140625	0		-0.833590087890625	0.34286386108398437	0		-0.06655935668945312	-3.610664306640625	0		1.743155517578125	-1.3497952880859374	0		3.422263671875	-0.7190767822265625	0		4.747994140625	-0.49186053466796875	0		5.9462431640625	0.40643963623046875	0		-0.0031900620460510254	5.96752099609375	0		
0.008203095436096191	-0.0012638180255889894	0		0.7271649169921875	-2.934930908203125	0		-0.7614967041015624	0.341880859375	0		-0.07368083953857422	-3.618423583984375	0		1.72585595703125	-1.3724405517578124	0		3.442368408203125	-0.717348876953125	0		4.74942138671875	-0.4698695068359375	0		5.94222216796875	0.3984830322265625	0		-0.0181181640625	5.95688671875	0		
-0.01871489143371582	-6.965709924697876E-4	0		0.6991940307617187	-2.933364990234375	0		-0.801468017578125	0.3386713562011719	0		-0.061861724853515626	-3.629467041015625	0		1.74156982421875	-1.393588134765625	0		3.4513818359375	-0.7204287109375	0		4.7594404296875	-0.4729957275390625	0		5.93431103515625	0.3986119079589844	0		-0.1843358154296875	5.93064697265625	0		
0.008340694427490235	-9.659789800643921E-4	0		0.73396240234375	-2.94777490234375	0		-0.7654059448242188	0.3382774963378906	0		-0.06391504669189453	-3.631278076171875	0		1.7433765869140625	-1.4075008544921874	0		3.448787841796875	-0.6973052978515625	0		4.77591259765625	-0.44620166015625	0		5.94336181640625	0.3974936218261719	0		-0.16897291564941405	5.94156884765625	0		
-0.01862064552307129	-3.7047499418258666E-4	0		0.6939081420898437	-2.9489892578125	0		-0.833291748046875	0.34353643798828126	0		-0.050085365295410154	-3.639327392578125	0		1.7502705078125	-1.4144783935546874	0		3.43969873046875	-0.704066650390625	0		4.784142578125	-0.4332622680664063	0		5.94340576171875	0.3975360107421875	0		-0.002373466968536377	5.9681171875	0		
0.011432036399841309	0.002337821006774902	0		0.7437245483398438	-2.9576103515625	0		-0.7612847900390625	0.34259759521484373	0		-0.048134700775146484	-3.638175537109375	0		1.7689637451171876	-1.4326295166015626	0		3.471737060546875	-0.701460205078125	0		4.784142578125	-0.43317681884765624	0		5.93443994140625	0.3987401123046875	0		-0.14877838134765625	5.9356123046875	0		
-0.01863051414489746	8.603000082075596E-6	0		0.704780517578125	-2.9488125	0		-0.7972925415039063	0.3433778076171875	0		-0.021369171142578126	-3.647405029296875	0		1.81064306640625	-1.45013037109375	0		3.454928466796875	-0.687063720703125	0		4.78955810546875	-0.40515545654296875	0		5.93828564453125	0.38975985717773437	0		-0.0173199520111084	5.957734375	0		
0.008318790435791016	-2.1046100556850435E-4	0		0.737422119140625	-2.9651376953125	0		-0.6944099731445312	0.3379688720703125	0		-0.054430789947509765	-3.643673583984375	0		1.810569580078125	-1.44995458984375	0		3.459899658203125	-0.6849971923828125	0		4.8045966796875	-0.39927212524414063	0		5.93824560546875	0.38986090087890624	0		-0.1496073760986328	5.9370380859375	0		
-0.018753025054931642	4.3854299187660216E-4	0		0.7113469848632813	-2.961517333984375	0		-0.7974030151367187	0.34383517456054685	0		-0.022635889053344727	-3.647958984375	0		1.8181353759765626	-1.47088916015625	0		3.45478173828125	-0.686756103515625	0		4.80481640625	-0.38013601684570314	0		5.930177734375	0.39010690307617185	0		-0.1334401397705078	5.94600634765625	0		
0.008142245292663575	2.4260300397872925E-4	0		0.7490186157226563	-2.9728984375	0		-0.7615033569335937	0.3435087890625	0		-0.025985998153686525	-3.659677001953125	0		1.827945556640625	-1.4748441162109376	0		3.49107763671875	-0.661154052734375	0		4.818056640625	-0.35818984985351565	0		5.93906591796875	0.3891014099121094	0		-0.13247787475585937	5.9442255859375	0		
-0.0020128879547119142	-0.0013545390367507935	0		0.7140935668945313	-2.957111083984375	0		-0.7665428466796875	0.34884249877929685	0		0.03773259735107422	-3.666449462890625	0		1.8378299560546876	-1.4727861328125	0		3.469802978515625	-0.669626220703125	0		4.821021484375	-0.35206472778320314	0		5.9299638671875	0.3904015808105469	0		-0.0011191099882125854	5.9683857421875	0		
0.03386918258666992	3.2699400186538696E-4	0		0.73476513671875	-2.966198486328125	0		-0.7817453002929687	0.34534579467773435	0		-0.05204985046386719	-3.639766845703125	0		1.83052392578125	-1.4814425048828126	0		3.466856689453125	-0.6563695068359375	0		4.819126953125	-0.3358414611816406	0		5.92569677734375	0.38264569091796874	0		-0.016361888885498048	5.9578798828125	0		
-0.019288965225219726	0.0014350520372390747	0		0.733536865234375	-2.967925537109375	0		-0.781906494140625	0.34561883544921873	0		0.021418666839599608	-3.660677001953125	0		1.844214111328125	-1.489419189453125	0		3.476619873046875	-0.660300537109375	0		4.82511669921875	-0.3257249755859375	0		5.92939208984375	0.37378457641601565	0		-0.14881256103515625	5.9372490234375	0		
0.013313918113708497	-0.011814109802246094	0		0.7172149047851563	-2.974401611328125	0		-0.7820892944335938	0.3459005126953125	0		-0.028825584411621093	-3.66160595703125	0		1.8509024658203126	-1.496271728515625	0		3.473635498046875	-0.6470109252929688	0		4.83313427734375	-0.3126227416992188	0		5.92119482421875	0.373133544921875	0		-0.16786309814453124	5.9428271484375	0		
